<?xml version="1.0" encoding="utf-8"?>
<!-- Generator: Adobe Illustrator 26.5.0, SVG Export Plug-In . SVG Version: 6.00 Build 0)  -->
<svg version="1.1" id="Calque_1" xmlns="http://www.w3.org/2000/svg" xmlns:xlink="http://www.w3.org/1999/xlink" x="0px" y="0px"
	 viewBox="0 0 512 512" style="enable-background:new 0 0 512 512;" xml:space="preserve">
<style type="text/css">
	.st0{fill:#FFFFFF;}
	.st1{fill:#A2CBED;}
	.st2{fill:#6F9DD3;}
	.st3{fill:#CCE3EF;}
	.st4{fill:#1C77C3;}
</style>
<circle class="st0" cx="256" cy="256" r="255"/>
<circle class="st1" cx="256" cy="256" r="247"/>
<circle class="st0" cx="256" cy="256" r="223.8"/>
<circle class="st2" cx="256" cy="256" r="215.7"/>
<circle class="st0" cx="256" cy="256" r="207.5"/>
<g>
	<g>
		<path class="st3" d="M408.9,347c-2.4-7.4-9.1-12.8-12.2-19.6c0.6,9.9-8.2,6.9-6.3,1.6c-0.6-0.3-3.5-1-4.7-1.2
			c1.8,0.7-3.3,2.3-2.8,4.2c-1.8-1.9-5.8-1-4.7,1.4c-13.6,8.1-12.4,4.9-10.1,21.2c5.9,2.9,11.9-5.3,18.7-3c3.6,1,1.7,6.2,5,1.6
			C392.7,361.3,406.3,365.8,408.9,347z"/>
		<path class="st3" d="M207.8,323.2c-1.9-5.1-9.3-3.7-11.5-6c-5-1.5-2.9,2.1-6.4,0c3.5-4.7-1.3-8.3-7.4-8.4c-3-5.3-3.7-3.2-10.3-4.7
			c-3.1-3.9-2.6,3.3-4.1,1.1c2.1-6.3-7.6,4.3-11.1,0.3c-1-11.9-7.1-2.7-5.8-10.1c3.2-8.4-7.5,6.6-10.2-3c-0.1-1-1.2-11.4,5.7-9.5
			c1,0,2.3,0.2,3.1,0.7c0.6,0.1-0.5-1.9-0.7-1.3c3.1-1.7,8.1,0.3,9.5,5.7c2.7-3.1-3.1-9.2,4.5-11.5c0.6-0.2,0.2-0.7-0.2-1.1
			c0.8,0.8,2-1,1-0.2c-1.6-1,0.2-0.1,0.2-0.9c-0.3-1.1,0.8,1.8,0.2,0.2c-1.1-2.1-1.5-0.9-0.6-1.8c-1.3-1.3-0.6-0.1,0-0.3
			c-2.4-2.3,0.4,1-0.3-2c1.2-1.4,0.1,3.8,1,2.2c1.3-1.2-0.7-2.2,0.6-3.2c-0.1,3.1,1.1-2.1,3.9-2.3c2.9,0.8-1.3-2.3,2.5-3.7
			c2.2-1,3.4-2.4,5.8-1.8c-0.1,0.2-4.6,1.2-2,2.8c7-4.2,2.2-2.2-1-6.9c7.4-4-7,0.6-7.9,4.1c-3.1,1.4,4.7,0,2.6,0.2
			c-5.5-0.3-7.9,6.1-12.9,5.2c5.2-2.5,12.7-6.5,14.8-9.8c2.1-5.5,18.3-1.6,13.6-9.3c-0.7,0.8-0.1-2.1-2.2-0.2
			c-0.7,0.9-2.3,1.4-1,0.1c5.6-1.9-1.2-2.2-1.7-4.4c-0.7-1.2,0.1-1.4-0.7-3.4c-2.2-0.4,0.4-1.5-2-2.2c1.1-1.6-1.9-4-1.5-0.9
			c-0.9,2.1-2.3,2.8-3,2.2c-1.3,2,0.2,0.5-0.2-0.7c-0.2-1-2.5,0.7-1.6-0.2c1.3-3.4-0.7-4.7-4.2-7.9c-6.6-0.3-3.4,2.1-4.4,6.9
			c2.1,5.5-2,12-1.6,15.9c-2.6-1.4-2.5-4.9-3.9-7.9c-5.8-1-10.8-5.1-12.6-7.7c-0.3-8.1,7.3-8.4,1.5-11c6.6,2.6,8.4-3.5,2.6-4.8
			c-0.8-0.8,7.3,3.4,4.5-1.4c0.6-1.3,4,2.2,2.8-0.4c-2.2-1.6,5.6,1.5,2.1-4.3c0.7-2.1,1.4-4.9-3.2-5c-0.6,1.5,0.4,2.8-0.9,5.2
			c-3,8.1-1.9-9.6-4.3-1c-1.8-0.4,0.8-4.2-3.1-3.8c1.1-2.1,1.5-1,0.6-2.9c-3.2-9.8-7.1,2.1-1.5,4.3c-0.1-1.4-0.5,0.4-0.9,0.9
			c0.1,1.6,1.2-1.7,1,0.8c-1.4,1.2-2.3,4-2.3,5.5c-1.8-1.6,1.6-0.3,0-1.3c-0.3-1.6-1.9-5.7-2.8-2.5c2.4,0.9,0.8,1.6-0.3,0.1
			c-2.3,4.4-8.3-5.4-10.7-0.7c6.4-0.6-0.8-0.6,1.5,3.6c0.4,0.6-0.1,0.3-0.3,0.1c-0.6,0.2,0.8,2.1,0.2,1.4c-0.9-1.2-0.8-1.2-0.5-2.1
			c-1.3-3.6-6.9,0.6-7.7-2.4c3.7-2.5-5.9-3.3-7.7-5.1c-2.8,3.9-2.2-3.6-3,1.2c-1.3,1.1-3.6-6.2-2.8-2.5c-2.7,2.1-4.3,2.7-5.9,4.3
			c9.8-7.7-4.5-1.7-2,0.4c-3.4-5.8-19.5-4.7-21.8-7.3c-4.4-1.3-7.1,5-11.4,7.7c-1,2.2,10.2,7.1,4.7,5.6c-0.7-1.8-0.7-0.5,0.1,0.5
			c2.7,0-3.3,2.2-2.1-0.5c-4.3,1-4.2,2.7-2.5,5.1c3,1.2,6.1-2,5.3,0.5c1.7,3.3-10.3,5.1-3,8.2c1-0.3,0.2,1.1-0.9-0.1
			c-0.7,4.8,5.1-1.6,2.8,4.8c3.3-1.8,3.5,1.9,3.6-0.7c2.1,1.4,1.2-0.5,1.4,2.9c-1.7,0.4-9,7.3-4.1,3.7c7.3-0.5,6.7-9.5,12.8-12.1
			c-2.1,1,1.7,1.4-0.8,1.2c-1.2-1-2.6,3.7-1,2.5c-3.3,3.3,5.4-1.9,2.6-1.5c0.6-3.7,6.2,3.3,9.8,1c-0.6,0,0.9,3,3.2,3.5
			c1.4-0.2-1.3-1.3-0.4-1.3c0.9-0.1,1.7,2.6,1.8,0.8c-0.5-3.1-0.3-0.2,1,0.7c-0.1-1.2,1.4,2,0.9,1.2c-1.2,0.1,2.1,2.8,1.6,2.9
			c-1.1,2.8,0.8-0.9,0.9,0.7c-0.1,2.5,1,2.3,1-0.1c-0.9,6.7,2,2.1,2,7c0.7,0.6,1-2.8,1.6-0.1c-1-1.6-2.2,1.5,0,0.6
			c-2.9,0.4,1.6,3.2,1.9,1.5c-0.7,1.7,1.2,1.4,1,1.4c0.2,1.1,0.1,0.2-0.1,0.6c0.4,0.8,0.9-0.2,0.9,0c0.1,0.6,1.9,4.3,0.3,3.8
			c0.6-0.1,0.2-0.3,0.5-0.8c0.1-0.6-1.4,1.6-0.3,0c-1.9-4.5-3.7,13.5,1.1,14.1c-2.1,3,6.6,7.9,7.9,11.9c-0.5,0.3,3.2,7,5.2,6.2
			c-4-4.2-8.5-15.1-1.2-4.7c5.1,8.8,13.2,14.4,24.4,16c2.2,3.1,3.9,5.7,8.2,6.4c0-4.1,3.7,0.7,2.9,3.7c0.2,0.6-1.5,2.7-2.6,3.2
			c-3.2,5.7,1.5,2.3-0.5,4.6c0.6,10.9,15.7,18.1,9.4,32.7c-5.3,13.9,1.7,13.8-4.3,20.2c-0.2-0.6,1.4-0.4,1.4,0.4
			c-1,1.4,0.3,0.8,0.6,1.2c0.3,0.3,0.2,0.6-0.2,0.2c-1.6-0.4-0.2,0.9-0.3,0.7c0,2.6-0.7,1.4,0.3,3.8c0.1-0.6,0.3-0.5,0.2-0.2
			c-0.7,1.2-0.5-1-1.5,0.1c0.4,1.3,3.2,3.3,2.1,1.3c2.4,2.3-1.5,0-1,2c0.6,0.5,1.4-0.5,0.6,0.6c1,0,2.8-1.7,0.6,0.4
			c-0.6,1.7,2.5-1.8,1.6,0c-0.4,0.9-1.9-0.2-0.5,1.1c1.6,1.1,0.4-1.8,1.6-1.9c1.3-0.8,3.1-0.7,1-1.9c0.5-2.1,2.4-3.9,3.5-6.1
			c-2.1-4.3-1.1-1.8,1.4-7.1c0.1-0.1,0.8-0.3,0.4-0.3c-1.8-1.3,1.6,0.7,0.9-1c-0.9,0.2-2.2-0.2-1.4-2.2c7.8-3.1,9.1-2.2,7.2-11.6
			c2.4,10.5,9-2.6,11-8.5C204.6,339.7,202.4,331.7,207.8,323.2z"/>
		<path class="st3" d="M110.7,203.5c5.9,6.3,5.1-2.5,11.1-5.2C115.5,190.1,111.5,195.8,110.7,203.5z"/>
		<path class="st3" d="M147.5,156.7c2.8-1.7-0.9,2.5,3.4,0.1c-2.1,1.1-2.7,6.1,2.4,2.3c2.7-0.5-2.4,2.3-3.5,2.1
			c0.6,3.1,2.7,1.3,3.6-0.6c5.9-2.8-6.3,5.2,3.8,1.8c-0.8,4.7,4.2-4,5.7-4.5c-3.9,3.9,1.7,3.4-4.4,6.7c-5.4,1.5,4.4,8.1-3.9,1.1
			c-5-1.1,1.2,9.3,2.9,8.2c-2.4,0.9-6.3-0.9-5.9,3.9c1.8-0.1,2.1,1.4,3-1.9c-0.8,2.7-0.4,8.3,2.3,2.8c-0.5,3.7-3,3.8-4.4,0.7
			c-3.8-0.4,1.9,4.2-1.5,3.6c-5.3,4.7,6.2,3.8,6.3,2.3c1.4,3.9,6.4-0.4,3.2-1.4c-0.5-2.9-3.2,0.2-2.6-2.8c4.3,3.3,11.1-9.1,3.7-7.8
			c-1.2-1.3,4.9,0.9,4-1.2c-1.1,0.7-3.5-2.3-1.7-1.4c6.8,0.7-0.2-3.1,2.4-2.2c5,3.1,2.1-5.2,4.3-3.2c1.7-4,9.5-9.9,1.1-6.2
			c9-3.6,9.1-15.4,0.5-10.4c1.2-1.7,2.8-2.8-1.4-3.2c-0.1-1.5-2.6-0.8-1.8,0.4c0.3-0.1-4.2-2.3-1.6,2.1c-4.3-5-4.1-2.2-3.7,1.4
			c0.2-3.4-6.8-4.6-2.8-1.1c-4.9-2-0.7,1.7-3.2,0.3c-2.7,1.6,4.7,7.9,1.3,5.2c-4.3-3.8-7.5-4-5.2,0.2
			C152.6,152.8,146.7,153.3,147.5,156.7z"/>
		<path class="st3" d="M142.7,166.8c-3.1-0.1,1.5,2.3,0.1,4c1.8,0.9,2.6-0.7,4.6,0.2c-7.8,3.6,4.3,9.3,1.4,4.5
			c2.3,5.4,1.7-3.4,2.3-2.2c-0.1,3.1,0.9-0.2,2-0.8c3.1-1.1-9.6-18-7.7-12.4c-4.7-0.3,0.4,3.8-1.7,3.4c-1.9-2.7-0.7,1.5-1.6,1.6
			C142.7,166.4,146,166.4,142.7,166.8z"/>
		<path class="st3" d="M141.8,202.3c0-2.9-2.8-1.8-0.4-5c-0.5-1-2.8-0.2-3.4-0.6c0.9,0.5-0.4,0-0.7,0.3c-0.1,1.3,1.2,1.1-0.4,0.9
			c-0.3,1.8,2.2,0.4,0.9,1.7c1.5,2.9-4.7-1.6-1.6,2.5C138.6,204.5,141.2,207.6,141.8,202.3z"/>
		<path class="st3" d="M137.2,210.9c-3.1-2.6-8.4-21.1-7.2-6.5c-2.5-2.1-0.5-6.5-4.2-2.5c0.9-3-2.2-1.2-3.1-0.7c2.7-7-8.6,3-3.5,3.4
			c-2.2,2.1,4.4-0.5,1.8,0.8c-8,3.2,6.9,1.9,3.6,3.9c-16.6,2.5,16.4,6.7,10.4,2.7C133.9,212,135.7,210.2,137.2,210.9z"/>
		<path class="st3" d="M149.4,194c0.6-2,4.7,2.6,6.6-1c-0.2-1.3,0.3,1.5,1,1.1c4,1,4.2-6.3-0.9-5.1c-2.8,0.8-5,1.4-6.5,0.8
			c-2.1-3,1.3-4.5-3.6-4.6c-0.9,0.1-0.9,1.3-0.5-0.4c0-1.3-4.2-2.6-3.7-0.8c-0.1,1,0.9,1.6,1.5,2.7
			C149.5,185.3,143.7,194.2,149.4,194z"/>
		<path class="st3" d="M141.3,199.9c0.1,0.2,0.3,0.3,0.4,0.1"/>
		<path class="st3" d="M147.6,198.8c3-4.9-7.6-4.2-4.3,2.9c-0.2,2.1,1.3,2.3,1.8,0.3C143.9,199.6,147.4,201.8,147.6,198.8z"/>
		<path class="st3" d="M219,211.7c4.5-3.4-4-2.7-5.1-3.1c0.5-1.2,6.1-2.7,2.1-3.6c2.1-2.2,4.2,6.8,5,2.2c0.3,3.5,1.6-1.1,0.5-2.1
			c0.6,0.8-3.7-4.1-3-4.9c-2.6,1.3-1.6,0.3,0.2-0.5c3.9,8.1,3.4-5.4-2.9-0.1c0.2-0.4,2.9-1.4,2.4-2.5c5,3,4.7,1,3.4-2.7
			c-0.2-1.3,0.6,3.1,1.8,0.6c3.5-1.4-1.8-3.4-1.7-3.1c5.5-1.2,1.3-5-0.8-7.3c3.3-1.4,6.8,0.1,2.1-4.4c3.6,0.6-0.6-2.8-0.7-0.4
			c-1,0.4,0.3-2.3,0.1-3.1c2.7-4.2,0.7-7.5,2.2-11.3c3.5,1.9,3.7-2.9,5.4-4.9c2.6-0.8,3.9-4.6,0.5-5.5c-3.8-2.1-3.2,6-5.9,1.1
			c-2,1.9-6.3,9.7-2.7,2.1c2.9-7.8-3.5-4-8.6-4.5c-1.5-3.2,16.2-2.3,5.7-7.5c0.8-4.9-12.5,0.9-6-2.5c12.2-1.3-8.6-6.8-9.2-1.6
			c2.8,6.2-2.8-2.1-6.3,1.8c-6.8,3.1,5.2,1.6,3,3.9c-0.5-0.7-3.6-1.3-3.9-0.4c1.8,1.8,1.3,5.6,0.7,7.4c-1.4-2-8-9.1-5.9-2.5
			c2.2,4.2-2.1-0.2-2.8-1.6c0.3,2.8-0.7,7.5-0.6,2c-2.1-5.2-8.3,1.4-3.2,5.2c-5.8-7.9-3.6-2.8-5.6,1.6c0.3-2.8-9.2,6.7-3.9,7.1
			c6.5,2.5-14.2,10.2-5.2,12.3c-1.3,2.6,7.7,0.8,3.2,2.3c-6.8,1.6-1.4,2.3-1.4,5.6c2.2,1.6,9.9-3.3,10.8,3.5
			c4.4,3.7,3.3,23.1,5.2,11.8c1,3.7-0.1,2,1.9,2.5c-3.4,1.8,1.6,1,0.8,2.5c0.9,3.6-1.1-0.5-3.3,0.2c-0.6,1.9,4,2.3,4.1,2.6
			c-1.1,1.8,0.5,4.9-2,3.8c-3,1.4,4,1.9-0.9,1.4c-1.6,3.8,4.6-1.2-0.7,2.5c1.1,2.4,0.8,0.2,0.2,3.2c1,0.1,3.7-3.4,1.7-0.9
			c-2.7,3.7,0.2,1.2,0.1,5.9c1.5-2.1,1.3-2.8,1.9-0.7c-3.3-0.7,0.4,5.4,1.9,8.1c1.7,0.7,1.8-0.1,3.5,1.1c-1.1,0.7,3.4,2.3,1.3,0
			c2.3-0.9,1.8-5.4,1.9-5.9c3.6-0.9-0.2-4.4,2.6-5.3c1.2-3.5,3.6,1.8,6.9-6.2C211.1,214.3,215.8,216,219,211.7z"/>
		<path class="st3" d="M361.3,314.5c2.3,10.4,12.2,2.3,9.3-2.7C374.2,304.8,364.5,313.1,361.3,314.5z"/>
		<path class="st3" d="M225.5,227.6c6.9-1.7,4.2-8.9,1.7-6.6c-2.4-0.7-5.7,3.4-5.1,0.6c-2.2-2.7-0.7-0.1-1.6-0.1
			c-1.2-1.2-0.6,0.8-0.7,0.8c-2.7,0.6,3.4-0.1,1.2,1.2c2.6,0.2-3.5,1-0.9,0.9C222.9,225,220.3,228.2,225.5,227.6z"/>
		<path class="st3" d="M298.7,331.8c-1-6.4-7.9,4.1-7.4,8.9C294.4,351.6,298.9,331.1,298.7,331.8z"/>
		<path class="st3" d="M447.9,221c-3.6-2.9-4.6-3.4-4.4-0.6c-2.3-4.5-3.5-5.8-8.6-8.9c-14.5-5-4.1,1.8-8.9,2.1
			c-1.3-3.5-9.1-4.3-9.1,0.7c0.4-11.1-11.5-5.1-13.6-12c-1.5-1.2-3.1,3.9-3.6,1.4c1.4-1.1,0.7,0.1,1.9-1.2c-5.8,0,2.9-1-5.1-1.7
			c-0.2-1.1-3.1,1.1-3.1,2c1.8-0.7-0.3,1,0.9,2.3c-1.2,0.1-2.6-1-2,0.6c-0.1,1.2-2.4-2.6-3.6-0.3c-2,0.6-2.1-3.5-2.8-0.3
			c-0.5,7-7.1-6.4-3-2.1c0.7-0.9-1-1.6-0.7-1.6c2-3.2-2.7-3.5-4.9-4.3c-1.4,0.7,0.1,3.3-2.1,3c-2.8,0.3-6.6-6-9-1.4
			c-1.4,6.3,1.5-4.2-2-1.8c-3.2-3.1-0.3,2-5,2.1c-6.6,3.6,9.5-7.9,6.5-9.7c-0.3,0.4-1.4-2.1,0-0.3c2.1,0.6-0.7-3.7-1.3-3
			c0.4-4.3-7.2,1.3-5.3-1.6c1.5-2-1.8-1.4-2.9-1.8c6.2-5.4-7.5-1.2-2.7,2.9c-4.4-0.1-1.5-0.1-2.2,3c-1.6-4.1-8.8,1-13.5,2.7
			c1.5,2.5-2.9,1.1,0.2,3.3c-2.1-0.9,0.9,2.4-1.2,4.1c1.1,1.3-1.5-0.6,1-1.9c-1.6,0-5.7,0.4-6.9,1.3c-1.1,3.1,6.3,9.1,2.2,11.2
			c-0.5-2.8,1.6-5.6-4.8-7.2c-1.7,2.7-3.7,1.5,0.8,4.9c-4.3-0.4-3.6-2.6-3.8-6.4c-6.3,13.3,3.3,9.6,2.4,16c2.2,2.3-4.2-8.7-3,0
			c-10.4,15.1,4.8-14.9-5.4-16.6c-8.3,12.1,7,16-10.1,11.1c1.8,5.7-3,1-6.6,4.1c-0.5-3.2-0.8-1.3-5.3,1.1c-6.7,9-1.4-6-5.3-1.3
			c2.1,7.8-4.4,3.1-4.2,9.5c-1.3,1.6-2.9-2.2-3.9-0.4c2.5,7.3-3.1-3.6-4.9-5.8c2.2,1.2,10.3,5.9,9.9-0.6c-3.1-5.3-8.9-5.1-9.8-7.5
			c-0.2,1-1,0.5-1.5,1.3c-1.3,0,1.3-0.8-0.2-0.6c-2.1-1.3-1.5-0.8,0.6-1.7c-0.6-1.6-2.9-2.7-2.9,0.1c-0.3-1.3,0.4-1.6-0.1-2.6
			c-1.5-0.5-1.4,4.3-1.6,0.3c-3.1,6.3-0.1-2.7-2.5,0.9c-1.5,3.1-0.8,0.5-2.9,1.3c0.6,1.7-0.8,0.4-1.6,2.9c0.9-1.6-0.2-2.5-0.4-0.3
			c0.1-3.5-4.2,4.6-3.6,4.2c0.1,1.1-0.2-1.1-0.4-0.5c-0.8,0.7-0.2,0.4-1.1,1.1c-0.5-0.4,1.8,1.7,0.5,0.9c-0.1-0.7-3.5,3.2-1.6,3.4
			c-0.2,0.1-1.4,0.2-0.8,0.5c-1.5,3.3-1,2.1-3.5,5.4c-0.4,2.4,3.6-2.3,1,0.7c-2.2-0.1-2.7,0.4-2.6,1.3c-0.5-0.9-2.5,0.9-0.9,0.7
			c1.3-0.2,0.1,0,0.1,0.4c-0.5-0.7-2.3,0.5-0.9,0.2c-1.7,0.3-2.4,1.5,0,1.4c-3.9-0.5-0.9,3.2,0.8,1c0.9,1.5-4.2,0-2.1,1.8
			c0.2,1.6-1.3,2.3,1.7,0.2c-4.6,2.7,1.4,8.4,3.8,1.6c2.8,11.7,4.6,8.8,8.4,0.8c-1,0.6-3.8-0.4-1.1-0.4c3.7,1-0.2-2.2-0.2-3.4
			c0.8-3.1,5.4-14.3,8.7-10c-5.7,7.5-6.1,13.2,4.3,12.1c2.9,1.2-10.5,1.2-5.2,3.8c0.3,1.7-0.3,0.2-0.2,2.2c-8-1,2.2,4.7-11.2,6.3
			c1.3-0.4-3.5-0.4-4-1.1c-1.5-1.8,1.2-3.1,0.2-4.8c-1-2.7-3,1.8-1.5,5.6c2.3,1.2-1.8-0.4-1.8,1.3c-4,0.2-4.2,4.6-7.9,6.8
			c-3.5-1.7,0.2,1.5-2.8,1.1c-5-0.5,2.1,2.2,2.4,5.6c-2.8,4.9-9.9-1.7-9.5,9c0.8-1.1,0.3,5.2,2.7,0.8c-0.3-0.1-1,1.8,0.1,1.1
			c6.6,5.5,9-11,14.5-8.5c5.6-5.9,10.8,14.3,11.3,4.2c4.3,1.7-9.8-6.7-4-7.7c0.8,1.1,3.4,3.6,6,5.4c0.7,1.8,0.7,5.3,3.4,5.2
			c-3.8,1.9,3.7,4.2,0.3-2.4c12.5-3.2,1.8,1.6,7.7-8.2c2.3-2,2.7-2.1,2.2-1.1c1.9,1,1,0.6,1.7,2.8c4.1,0.2-0.2-3.9,6.1-4.1
			c-3.4,3.7-1.6,3.1,2.6,7.7c-1.5,3.8-19.3-2.1-15.5,5.2c-1.7,0.2,1.8,4.2,4.5,2.2c7.7-1.2,5.1,8.9-0.3,6.7c-2,3.1-12.8-5-11.7,0.6
			c-22.5-2.9,5-10.6-27.8-6c-1.4,4.7-11.6,12-3.1,10.2c-11-2-9.4,19.1-6.7,18.1c2.5,7.1,12.3,10,19.1,4.9c4.3,3.6,10.2,2.4,6.5,8.5
			c4.5,5.3,6.4,9.3,3.1,16.7c2.7,7.2,4.4,16.4,8.8,21.7c9.2-0.4,17.6-10.1,15.7-18.1c10.8-3.7,2.5-11.8,6.1-18.6
			c25-22.8-0.9-6.4-3.8-26.7c-1.2-0.3-6.2-12.2-3.9-7.9c1.3,3.4,2.3-3.5,1.9-0.7c4,0.3-2.1-0.2,0.1,1.5c2,3,3.9,5.4,4.7,8.6
			c7.7,7.1-1.2,13.6,14.5,4.6c12.5-6.4,3.6-8.9-2.8-9.8c-8.3-13.6,8,4,16.9-0.2c0.9,0.5,2.5,4,4.3,2.8c-3.6,2.6,2.5,2.9,2.3,1
			c-1,4.2,7.3,25.5,8,7.9c7.7-6.5,13.4-14.3,15.1-1.2c7.9-3.2,1.8,13.8,10.6,15.9c-0.2-4.8-9.2-10.8-3.5-12.3
			c4.1,1.1,3.9,5.7,5.8,3.5c8.5-2.1-6.3-12.8,3.6-13.2c-0.8,2.4,8.7-2.8,10.5-4.5c-1-1.7,5.2-5.1,0.9-5.8c0.2-0.2,2.6-1.9-0.5-2
			c0.9-0.5,3.1,1,1-0.8c-2.8-4-0.6-4.3,1.6-6.3c-7.6,1.1-4.1-5.1-0.3-4c-1.9,2.6-0.4,1.8,2.3,0.5c2.8,1.8-1.5,3.1,2.3,3
			c0.8,0.5-1.7,5.6,1.1,4.1c2.7-18.8,9.9-5,14.7-25.5c0.2-4.2-2.6-4.7-3.9-2.9c-0.8,0.3,0.1-1.1-0.2-1.3c-0.8,1-0.9,1.2-0.7-0.5
			c-0.1-0.4-1.9,0.3-1.7-0.6c7.8-14,19.6-5.8,20.3-9.8c8.4-11.2,2.7,2.8,11.2-6.1c-0.2,2.2-5.5,8.3-8.3,10.9
			c-2.9,2.3-0.6,16.4,1.6,9c7.2-5.3,2.2-14.2,6.7-14c3.2-1.3,8.9-1.7,13.4-6.5c5,3.4,0.6-7.3-2.9-4.6c0.9-0.7,3.9-0.2,2.2-0.8
			c3.9,4.1,4.5-7,5.2-1.9c1.4,0.7,5.1,3.7,6.5,3.4c-0.1-0.8-0.2-3.2,0.1-3C446.9,223.2,447.1,222,447.9,221z"/>
		<path class="st3" d="M264.5,166.8c1.2,8.1,16.3,2.8,5.2-2.4c-2.4,0.8,1,4.7-3.6-0.2C266.1,167.1,263.3,165.4,264.5,166.8z"/>
	</g>
</g>
<g>
	<path class="st4" d="M119,270.9h15.5v68.7h72.6v14.8H119V270.9z"/>
	<path class="st4" d="M206.8,268.8c11.5,0,21.4,4.2,29.7,12.5c8.3,8.3,12.4,18.5,12.4,30.5c0,11.9-4.1,21.9-12.3,30.2
		c-8.2,8.2-18.1,12.3-29.8,12.3c-12.2,0-22.4-4.2-30.5-12.7c-8.1-8.5-12.1-18.5-12.1-30.1c0-7.8,1.9-15,5.7-21.5s8.9-11.7,15.5-15.5
		C192.1,270.7,199.2,268.8,206.8,268.8z M206.7,284c-7.5,0-13.9,2.6-19,7.9c-5.1,5.2-7.7,11.9-7.7,20c0,9,3.2,16.1,9.7,21.4
		c5,4.1,10.8,6.1,17.3,6.1c7.4,0,13.6-2.7,18.8-8c5.2-5.3,7.8-11.9,7.8-19.7c0-7.8-2.6-14.3-7.8-19.7
		C220.5,286.6,214.1,284,206.7,284z"/>
	<path class="st4" d="M315.8,284.1l-10.9,10.8c-6.9-7.3-15-11-24.2-11c-8,0-14.7,2.7-20.1,8c-5.4,5.3-8.1,11.8-8.1,19.4
		c0,7.9,2.8,14.5,8.4,20c5.6,5.5,12.5,8.2,20.8,8.2c5.4,0,9.9-1.1,13.6-3.4c3.7-2.3,6.6-5.8,8.9-10.6h-23.6V311h41l0.1,3.4
		c0,7.1-1.8,13.9-5.5,20.3s-8.5,11.3-14.3,14.6s-12.8,5-20.7,5c-8.5,0-16-1.8-22.6-5.5c-6.6-3.7-11.9-8.9-15.7-15.7
		c-3.9-6.8-5.8-14.1-5.8-22c0-10.8,3.6-20.2,10.7-28.1c8.5-9.5,19.5-14.2,33-14.2c7.1,0,13.7,1.3,19.9,3.9
		C305.7,274.9,310.8,278.7,315.8,284.1z"/>
	<path class="st4" d="M354.3,268.8c11.5,0,21.4,4.2,29.7,12.5c8.3,8.3,12.4,18.5,12.4,30.5c0,11.9-4.1,21.9-12.3,30.2
		c-8.2,8.2-18.1,12.3-29.8,12.3c-12.2,0-22.4-4.2-30.5-12.7c-8.1-8.5-12.1-18.5-12.1-30.1c0-7.8,1.9-15,5.7-21.5
		c3.8-6.5,8.9-11.7,15.5-15.5C339.6,270.7,346.7,268.8,354.3,268.8z M354.2,284c-7.5,0-13.9,2.6-19,7.9c-5.1,5.2-7.7,11.9-7.7,20
		c0,9,3.2,16.1,9.7,21.4c5,4.1,10.8,6.1,17.3,6.1c7.4,0,13.6-2.7,18.8-8c5.2-5.3,7.8-11.9,7.8-19.7c0-7.8-2.6-14.3-7.8-19.7
		C368,286.6,361.6,284,354.2,284z"/>
</g>
<g>
	<path class="st2" d="M159,231.7v-19.8l-17.2-27.2h11.1l11.1,18.6l10.8-18.6h10.9L168.5,212v19.7H159z"/>
	<path class="st2" d="M199.3,208.5c0-4.8,0.7-8.8,2.1-12.1c1.1-2.4,2.5-4.5,4.4-6.4c1.8-1.9,3.9-3.3,6.1-4.2
		c2.9-1.2,6.3-1.9,10.1-1.9c6.9,0,12.5,2.1,16.6,6.4c4.2,4.3,6.2,10.3,6.2,17.9c0,7.6-2.1,13.5-6.2,17.8c-4.1,4.3-9.6,6.4-16.6,6.4
		c-7,0-12.6-2.1-16.7-6.4C201.4,221.9,199.3,216,199.3,208.5z M209.1,208.2c0,5.3,1.2,9.4,3.7,12.1c2.5,2.7,5.6,4.1,9.4,4.1
		c3.8,0,6.9-1.4,9.3-4.1c2.4-2.7,3.6-6.8,3.6-12.3c0-5.4-1.2-9.4-3.5-12.1c-2.4-2.7-5.5-4-9.4-4c-3.9,0-7.1,1.3-9.5,4
		S209.1,202.8,209.1,208.2z"/>
	<path class="st2" d="M264.2,184.7h9.5v25.5c0,4,0.1,6.7,0.4,7.9c0.4,1.9,1.4,3.5,2.9,4.6c1.5,1.2,3.6,1.7,6.3,1.7
		c2.7,0,4.7-0.6,6.1-1.7s2.2-2.5,2.5-4.1c0.3-1.6,0.4-4.3,0.4-8v-26h9.5v24.7c0,5.6-0.3,9.6-0.8,12c-0.5,2.3-1.5,4.3-2.8,5.9
		c-1.4,1.6-3.2,2.9-5.5,3.8s-5.3,1.4-9,1.4c-4.5,0-7.9-0.5-10.2-1.6c-2.3-1-4.2-2.4-5.5-4c-1.3-1.7-2.2-3.4-2.7-5.2
		c-0.6-2.7-0.9-6.7-0.9-11.9V184.7z"/>
	<path class="st2" d="M323.7,231.7v-47h20c5,0,8.7,0.4,11,1.3c2.3,0.8,4.1,2.3,5.5,4.5s2.1,4.6,2.1,7.4c0,3.5-1,6.4-3.1,8.7
		c-2.1,2.3-5.2,3.7-9.3,4.3c2.1,1.2,3.7,2.5,5.1,3.9c1.3,1.4,3.1,4,5.4,7.6l5.7,9.2h-11.4l-6.9-10.2c-2.4-3.7-4.1-6-5-6.9
		s-1.8-1.6-2.9-2c-1-0.4-2.6-0.5-4.8-0.5h-1.9v19.6H323.7z M333.1,204.6h7c4.6,0,7.4-0.2,8.5-0.6c1.1-0.4,2-1,2.7-2s1-2.1,1-3.5
		c0-1.6-0.4-2.9-1.3-3.8c-0.8-1-2-1.6-3.6-1.8c-0.8-0.1-3.1-0.2-6.9-0.2h-7.4V204.6z"/>
</g>
<polygon class="st4" points="257,374.3 259.5,382 267.6,382 261.1,386.8 263.6,394.5 257,389.7 250.5,394.5 253,386.8 246.5,382 
	254.5,382 "/>
<polygon class="st1" points="228.2,374.3 230.7,382 238.8,382 232.3,386.8 234.8,394.5 228.2,389.7 221.7,394.5 224.2,386.8 
	217.6,382 225.7,382 "/>
<polygon class="st1" points="285.3,374.3 287.8,382 295.9,382 289.3,386.8 291.8,394.5 285.3,389.7 278.7,394.5 281.2,386.8 
	274.7,382 282.8,382 "/>
<rect x="119" y="248.2" class="st1" width="274.4" height="5.3"/>
<rect x="119" y="164.1" class="st1" width="274.4" height="5.3"/>
</svg>
